PathFileType	4	(X/Y/Z)	RUN4																																																													
DataRate	CameraRate	NumFrames	NumMarkers	Units	OrigDataRate	OrigDataStartFrame	OrigNumFrames																																																									
15	15	8	21	mm	15	73	577																																																									
Frame#	Time	SpineBase			SpineMid			Neck			Head			ShoulderLeft			ElbowLeft			WristLeft			HandLeft			ShoulderRight			ElbowRight			WristRight			HandRight			HipLeft			KneeLeft			AnkleLeft			FootLeft			HipRight			KneeRight			AnkleRight			FootRight			SpineShoulder		
		X1	Y1	Z1	X2	Y2	Z2	X3	Y3	Z3	X4	Y4	Z4	X5	Y5	Z5	X6	Y6	Z6	X7	Y7	Z7	X8	Y8	Z8	X9	Y9	Z9	X10	Y10	Z10	X11	Y11	Z11	X12	Y12	Z12	X13	Y13	Z13	X14	Y14	Z14	X15	Y15	Z15	X16	Y16	Z16	X17	Y17	Z17	X18	Y18	Z18	X19	Y19	Z19	X20	Y20	Z20	X21	Y21	Z21
																																																																
73	4.8	304.86	750.2686	192.31675	297.025	1069.43015	208.99635	302.228	1383.107	228.0314	281.575	1527.3349	227.98805	284.68	1375.6925	65.23505	289.331	1632.623	-11.08685	286.757	1931.6001	-2.46125	272.555	1989.9001	6.44695	272.845	1350.4168	390.13159	294.408	1571.9073	504.81285	324.324	1841.7136	572.95135	297.722	1941.102	578.68935	348.249	759.016	119.63635	370.519	379.9888	16.48425	355.231	-127.58	-145.25215	509.835	-131.414	-68.08875	336.782	748.481	268.72197	325.829	365.6439	278.49854	325.664	-81.582	280.76246	458.723	-136.681	298.55212	298.586	1305.3398	223.35261
74	4.866666667	305.039	750.1775	192.78205	296.845	1069.7234	208.94595	301.75	1384.073	226.7187	282.028	1528.2918	227.49821	285.028	1376.151	65.42615	288.975	1632.1233	-11.42845	286.685	1930.7848	-4.95145	272.789	1989.5159	-3.75995	272.945	1351.0403	390.30525	294.232	1571.9662	504.87075	319.954	1845.0813	577.94935	297.322	1938.0269	584.52785	348.387	759.0631	120.05265	371.03	379.3073	13.44625	387.397	-129.839	-170.82675	536.412	-133.316	-84.89535	337.064	748.2854	269.1306	325.99	366.591	278.60889	384.523	-138.136	265.61452	494.099	-153.7	331.99852	298.222	1306.1881	222.46188
75	4.933333333	306.085	750.5469	192.67755	297.532	1070.25874	209.82065	302.307	1384.3104	228.66255	283.422	1528.7919	227.43495	285.327	1376.2184	65.67605	288.889	1631.5916	-13.02815	285.895	1929.9381	-11.17005	275.208	1987.2411	-18.54635	273.172	1351.1942	390.47943	294.168	1571.8935	504.99465	317.361	1844.2685	584.19775	292.591	1943.6685	598.29005	349.438	759.1896	120.07285	371.643	377.2828	6.88305	389.177	-129.133	-170.69165	538.791	-132.874	-85.84805	338.129	748.936	268.84858	325.881	366.5355	278.57464	371.347	-106.24	269.24603	476.297	-156.094	312.66668	298.773	1306.5821	224.00552
76	5	307.171	750.7186	191.90495	297.997	1070.55523	209.09585	302.462	1384.3982	227.54711	283.737	1529.2694	226.42375	285.247	1376.3062	65.59385	288.819	1631.6081	-20.16735	287.485	1912.7473	-41.30555	276.965	1980.8143	-40.62905	275.282	1349.7454	389.50587	296.646	1587.6727	514.14935	315.315	1842.4998	594.42665	294.907	1937.4648	611.27045	350.064	758.9199	119.43255	371.981	377.7918	0.83925	395.094	-117.651	-176.42975	542.91	-125.284	-89.93265	339.945	749.8103	267.86547	325.774	367.0359	278.35718	402.04	-146.169	260.88078	484.649	-147.088	352.71973	298.991	1306.774	222.99283
77	5.066666667	307.926	750.9931	191.17475	298.481	1071.20365	208.03035	302.666	1385.1375	225.68994	286.163	1530.1548	222.7604	285.29	1376.4319	65.15415	288.762	1628.945	-34.76095	287.583	1911.9053	-52.17785	284.101	1975.7736	-66.43915	275.417	1349.8244	389.46968	299.917	1589.2646	517.68505	318.139	1836.3578	606.63665	303.913	1928.1914	626.13445	350.904	759.4461	118.70455	373.035	377.173	-7.42865	396.273	-116.835	-182.93985	543.145	-124.551	-95.16585	340.616	749.8344	267.15095	325.674	367.5991	277.69877	372.445	-104.601	271.72975	480.035	-153.517	311.658773	299.267	1307.5544	221.32197
78	5.133333333	309.319	748.5896	187.59455	299.273	1070.37069	205.83785	303.132	1384.8728	224.179	288.797	1528.7613	218.88005	285.827	1375.427	63.54635	291.163	1625.3755	-54.11425	294.602	1897.5478	-88.33665	293.954	1964.6677	-98.01535	275.384	1349.9621	389.4884	300.798	1580.9924	521.72345	319.264	1830.7755	632.21765	309.561	1920.1939	649.25545	351.247	757.1036	115.44335	373.534	379.1071	-13.33575	394.663	-108.587	-183.67535	553.685	-123.387	-119.08965	343.245	747.3115	263.13016	325.57	368.2039	276.51438	417.589	-146.288	266.71689	471.989	-140.137	369.3992	299.786	1307.2125	219.64151
79	5.2	312.154	744.803	179.32695	304.074	1070.22538	197.28035	310.777	1388.3963	214.21505	290.4	1527.4289	212.90225	291.885	1364.4636	45.40915	290.774	1619.8754	-77.02515	298.318	1894.9787	-118.29675	300.617	1958.2224	-138.40035	282.787	1341.6248	386.15874	309.491	1588.9466	545.61205	322.772	1824.5993	653.41215	322.889	1898.5911	674.14625	352.365	751.6605	107.92685	373.154	380.0851	-18.42675	397.502	-104.962	-184.32005	561.216	-134.155	-143.08005	347.96	745.2146	253.87518	324.058	367.657	274.13337	367.351	-86.861	265.26797	468.062	-145.934	300.47836	306.604	1309.8092	210.03495
80	5.266666667	313.964	740.0104	174.65255	306.366	1068.19593	191.81735	313.392	1388.4705	207.95995	295.951	1521.9728	204.25475	307.743	1340.3508	37.15445	290.556	1599.0999	-99.32855	311.086	1871.1318	-169.34855	316.385	1939.0043	-186.14305	289.72	1333.56	378.80729	303.723	1513.8198	532.09085	339.493	1779.4695	677.43525	341.028	1859.4131	698.86905	354.421	745.2298	102.44125	373.574	383.0218	-25.57545	401.57	-85.886	-190.45215	546.767	-157.175	-172.15385	349.404	742.0839	250.3662	322.665	366.315	270.55265	369.666	-98.249	265.08939	474.103	-150.201	305.0074	309.144	1309.4211	203.96675
